Coordinates
version=1
nRows=9
nColumns=63
inDegrees=yes

Units are S.I. units (second, meters, Newtons, ...)
If the header above contains a line with 'inDegrees', this indicates whether rotational values are in degrees (yes) or radians (no).

endheader
time	pelvis_tilt	pelvis_list	pelvis_rotation	pelvis_tx	pelvis_ty	pelvis_tz	hip_flexion_r	hip_adduction_r	hip_rotation_r	knee_angle_r	knee_angle_r_beta	ankle_angle_r	subtalar_angle_r	mtp_angle_r	hip_flexion_l	hip_adduction_l	hip_rotation_l	knee_angle_l	knee_angle_l_beta	ankle_angle_l	subtalar_angle_l	mtp_angle_l	L5_S1_Flex_Ext	L5_S1_Lat_Bending	L5_S1_axial_rotation	L4_L5_Flex_Ext	L4_L5_Lat_Bending	L4_L5_axial_rotation	L3_L4_Flex_Ext	L3_L4_Lat_Bending	L3_L4_axial_rotation	L2_L3_Flex_Ext	L2_L3_Lat_Bending	L2_L3_axial_rotation	L1_L2_Flex_Ext	L1_L2_Lat_Bending	L1_L2_axial_rotation	L1_T12_Flex_Ext	L1_T12_Lat_Bending	L1_T12_axial_rotation	Abs_r3	Abs_r2	Abs_r1	Abs_t1	Abs_t2	neck_flexion	neck_bending	neck_rotation	arm_flex_r	arm_add_r	arm_rot_r	elbow_flex_r	pro_sup_r	wrist_flex_r	wrist_dev_r	arm_flex_l	arm_add_l	arm_rot_l	elbow_flex_l	pro_sup_l	wrist_flex_l	wrist_dev_l
      2.93333333	    -21.67532981	      5.56089284	    -98.91538421	     -0.06570477	      0.95725478	     -1.10753583	     23.30594099	     -6.02877437	    -24.55007922	     57.65700663	      1.00630460	     12.98618925	     14.29063875	      0.00000000	     32.06425313	    -19.12209351	     12.14824282	     56.66051937	      0.98891262	     17.91211771	    -19.58037744	      0.00000000	     -0.01334042	     -1.01359553	      0.61468391	     -0.02477449	     -1.34808205	      0.65310166	     -0.02191697	     -2.46445616	      0.65310166	     -0.01524676	     -2.46445616	      0.53784842	     -0.01238791	     -2.06692400	      0.49943068	     -0.00762272	     -1.57005947	      0.46101293	     -0.09528928	    -11.46599531	      3.41868751	      0.00000000	      0.00000000	    -16.06984309	     14.68520997	     -2.13845681	    -17.11469715	    -35.99655008	    -61.34094635	     88.45757142	     89.99559364	      0.00000000	      0.00000000	     -3.83866608	    -40.19067361	     11.58021213	     24.11127193	     89.99559364	      0.00000000	      0.00000000
      2.95000000	    -21.66156542	      5.48830164	   -100.67029191	     -0.06959050	      0.95754574	     -1.09939181	     24.43098182	     -7.16203120	    -21.97449393	     55.38424370	      0.96663741	     11.20475417	     14.74346108	      0.00000000	     30.91960965	    -20.11301923	     10.55434901	     57.08082942	      0.99624841	     18.02232867	    -19.54618278	      0.00000000	     -0.01485761	     -1.14239523	      1.15882941	     -0.02759206	     -1.51938565	      1.23125625	     -0.02440956	     -2.77761976	      1.23125625	     -0.01698076	     -2.77761976	      1.01397573	     -0.01379677	     -2.32957235	      0.94154889	     -0.00848964	     -1.76957021	      0.86912206	     -0.10612639	    -12.92300330	      6.44506152	      0.00000000	      0.00000000	    -14.97667646	     13.38491369	     -6.44348115	    -20.34610102	    -35.49417869	    -64.79753638	     88.37490224	     89.99559364	      0.00000000	      0.00000000	     -3.09468084	    -39.38245368	      2.21021459	     25.30878042	     89.99559364	      0.00000000	      0.00000000
      2.96666667	    -22.08036745	      5.47015532	   -100.33567420	     -0.07132963	      0.95702127	     -1.09023047	     24.70434078	     -8.64944920	    -21.56803569	     52.77341295	      0.92106981	      9.90245004	     15.59304609	      0.00000000	     30.40565338	    -20.44401199	     11.00999004	     57.13748429	      0.99723723	     18.41536346	    -19.50915343	      0.00000000	     -0.01573858	     -1.21727335	      1.35958448	     -0.02922812	     -1.61897355	      1.44455851	     -0.02585691	     -2.95967841	      1.44455851	     -0.01798762	     -2.95967841	      1.18963642	     -0.01461485	     -2.48226381	      1.10466239	     -0.00899302	     -1.88555641	      1.01968836	     -0.11241911	    -13.77003954	      7.56160101	      0.00000000	      0.00000000	    -15.07293672	     13.46910593	     -6.93416718	    -23.72292734	    -35.02734812	    -68.10226414	     88.28385730	     89.99559364	      0.00000000	      0.00000000	     -1.67619978	    -39.72066596	      1.25948811	     26.33593145	     89.99559364	      0.00000000	      0.00000000
      2.98333333	    -23.04732049	      5.50262731	    -98.33153319	     -0.07124282	      0.95586819	     -1.08033011	     24.22475599	    -10.11160359	    -22.72146760	     50.07780488	      0.87402258	      9.00908130	     16.47665367	      0.00000000	     30.52560224	    -20.48867499	     13.23123953	     57.05550711	      0.99580646	     18.97673341	    -19.47663180	      0.00000000	     -0.01757068	     -1.22680747	      1.26686989	     -0.03263051	     -1.63165393	      1.34604926	     -0.02886687	     -2.98285968	      1.34604926	     -0.02008153	     -2.98285968	      1.10851115	     -0.01631613	     -2.50170579	      1.02933179	     -0.01003989	     -1.90032477	      0.95015242	     -0.12550562	    -13.87789145	      7.04595026	      0.00000000	      0.00000000	    -15.41464416	     13.79390773	     -8.18419620	    -26.96822250	    -34.69805768	    -71.15005500	     87.99030369	     89.99559364	      0.00000000	      0.00000000	     -0.23072369	    -39.78113025	     -0.09304669	     26.96719538	     89.99559364	      0.00000000	      0.00000000
      3.00000000	    -24.40636510	      5.54293489	    -95.17735902	     -0.06981174	      0.95412023	     -1.07064871	     23.18304213	    -11.49579458	    -25.08397812	     47.54977740	      0.82990017	      8.43850236	     17.23433461	      0.00000000	     31.21284375	    -20.38464020	     16.61344083	     56.95620563	      0.99407332	     19.54706151	    -19.46508938	      0.00000000	     -0.01841065	     -1.18715915	      0.89379972	     -0.03419042	     -1.57892167	      0.94966220	     -0.03024686	     -2.88645875	      0.94966220	     -0.02104154	     -2.88645875	      0.78207475	     -0.01709613	     -2.42085493	      0.72621227	     -0.01051985	     -1.83890952	      0.67034979	     -0.13150545	    -13.42938170	      4.97104588	      0.00000000	      0.00000000	    -15.98871410	     13.98290885	     -9.42732138	    -29.49106419	    -34.83835820	    -73.31331502	     87.45069277	     89.99559364	      0.00000000	      0.00000000	      0.67412608	    -39.90989231	     -1.21993688	     27.71849776	     89.99559364	      0.00000000	      0.00000000
      3.01666667	    -25.80611945	      5.47996402	    -92.26976837	     -0.06876282	      0.95228446	     -1.06212490	     22.11324118	    -12.58030810	    -27.14084432	     45.46191559	      0.79346011	      7.90240468	     17.77510175	      0.00000000	     31.86139860	    -20.51842574	     19.67983712	     56.91665308	      0.99338300	     20.18850048	    -19.44792721	      0.00000000	     -0.01963628	     -1.13021522	      0.46308638	     -0.03646654	     -1.50318624	      0.49202928	     -0.03226045	     -2.74800528	      0.49202928	     -0.02244231	     -2.74800528	      0.40520058	     -0.01823425	     -2.30473487	      0.37625768	     -0.01122017	     -1.75070337	      0.34731478	     -0.14026000	    -12.78522060	      2.57554751	      0.00000000	      0.00000000	    -16.67156300	     13.67564967	     -9.52800152	    -31.25143130	    -35.41233977	    -74.75625462	     87.39791978	     89.99559364	      0.00000000	      0.00000000	      1.02844821	    -40.37900525	     -1.53330531	     28.52620115	     89.99559364	      0.00000000	      0.00000000
      3.03333333	    -27.09855523	      5.23866404	    -90.30480945	     -0.06868991	      0.95078925	     -1.05463613	     21.13794559	    -13.30389991	    -28.31788730	     43.70078193	      0.76272253	      7.14254305	     18.16016497	      0.00000000	     32.10368602	    -21.12227250	     21.70888995	     56.97937000	      0.99447761	     20.89609679	    -19.42667354	      0.00000000	     -0.02050412	     -1.06819826	      0.06881595	     -0.03807819	     -1.42070369	      0.07311695	     -0.03368621	     -2.59721725	      0.07311695	     -0.02343415	     -2.59721725	      0.06021396	     -0.01904012	     -2.17826989	      0.05591296	     -0.01171605	     -1.65463910	      0.05161196	     -0.14645885	    -12.08367235	      0.38273367	      0.00000000	      0.00000000	    -17.37477351	     13.02854209	     -8.38565219	    -32.13609180	    -36.58003648	    -75.28637377	     87.97499391	     89.99559364	      0.00000000	      0.00000000	      0.43672331	    -41.23508040	     -1.19093443	     29.52057595	     89.99559364	      0.00000000	      0.00000000
      3.05000000	    -28.04703598	      4.74668951	    -89.60869189	     -0.06989797	      0.95028644	     -1.04768563	     20.23819692	    -13.85217240	    -28.47437830	     42.08761102	      0.73456739	      6.14805621	     18.44776743	      0.00000000	     31.53364095	    -22.15213455	     22.30351144	     56.99211088	      0.99469998	     21.58041938	    -19.39656283	      0.00000000	     -0.02245400	     -1.03093197	     -0.24504877	     -0.04169932	     -1.37113952	     -0.26036432	     -0.03688967	     -2.50660800	     -0.26036432	     -0.02566267	     -2.50660800	     -0.21441768	     -0.02085078	     -2.10227648	     -0.19910213	     -0.01283021	     -1.59691362	     -0.18378658	     -0.16038665	    -11.66210865	     -1.36288776	      0.00000000	      0.00000000	    -18.84666013	     11.21139953	     -4.16693865	    -31.93308563	    -38.32146964	    -74.63258089	     89.00958785	     89.99559364	      0.00000000	      0.00000000	     -1.32677470	    -42.43330465	     -0.87683452	     30.32090703	     89.99559364	      0.00000000	      0.00000000
      3.06666667	    -28.77202315	      4.14131277	    -90.14800065	     -0.07238948	      0.95059706	     -1.04125763	     19.58926535	    -14.16641053	    -27.69577386	     40.45897808	      0.70614238	      5.18604666	     18.58375617	      0.00000000	     30.30205883	    -23.66119760	     21.51491290	     57.04464301	      0.99561684	     22.27585780	    -19.35927112	      0.00000000	     -0.02556927	     -1.01139711	     -0.44133024	     -0.04748469	     -1.34515815	     -0.46891338	     -0.04200776	     -2.45911092	     -0.46891338	     -0.02922312	     -2.45911092	     -0.38616396	     -0.02374363	     -2.06244098	     -0.35858082	     -0.01461028	     -1.56665412	     -0.33099768	     -0.18263875	    -11.44112635	     -2.45454640	      0.00000000	      0.00000000	    -19.97295960	      9.97755374	      0.84080613	    -30.78738004	    -40.46141635	    -73.10523359	     90.24422126	     89.99559364	      0.00000000	      0.00000000	     -4.40752252	    -43.50687864	     -2.25744742	     31.29055794	     89.99559364	      0.00000000	      0.00000000
